<?xml version="1.0" encoding="UTF-8"?>
<svg id="Camada_1" xmlns="http://www.w3.org/2000/svg" version="1.1" viewBox="0 0 352 370">
  <!-- Generator: Adobe Illustrator 29.5.1, SVG Export Plug-In . SVG Version: 2.1.0 Build 141)  -->
  <defs>
    <style>
      .st0, .st1, .st2, .st3, .st4, .st5 {
        fill: none;
        stroke: #41042b;
      }

      .st0, .st1, .st5 {
        stroke-width: 2.83px;
      }

      .st0, .st2, .st5 {
        stroke-linejoin: round;
      }

      .st6 {
        fill: #f0b034;
      }

      .st7 {
        fill: #41042b;
      }

      .st1, .st3, .st4 {
        stroke-miterlimit: 10;
      }

      .st8 {
        fill: #8a2a78;
      }

      .st9 {
        fill: #2aafe2;
      }

      .st10 {
        fill: #cb0b50;
      }

      .st11 {
        fill: #ffffe9;
      }

      .st2 {
        stroke-width: 2.22px;
      }

      .st3, .st4 {
        stroke-width: 4.25px;
      }

      .st3, .st5 {
        stroke-linecap: round;
      }

      .st12 {
        fill: #332d91;
      }

      .st13 {
        fill: #34bf47;
      }
    </style>
  </defs>
  <g>
    <polygon class="st11" points="116.92 245.97 122.56 261 138.89 280.14 155 288.93 175.75 293.32 199.91 289.42 218.95 277.95 234.56 259 240.18 235.23 237.74 212.05 231.64 197.89 218.46 182.03 216.56 180 218.9 174.36 217.62 170.75 210.27 164.8 210.97 154.65 208.56 153 205.02 151.85 205.56 143 205.37 139.37 194.56 135 188.22 135.05 185.56 135 182.04 129.22 177.14 125.25 168.74 125.83 165.36 127.93 162.56 135 159.52 144.38 156.56 149 152.56 151 146.57 151.85 143.19 155.82 142.84 172.26 142.56 177 135.56 185 126.04 194.31 117.29 212.28 115.56 229 116.92 245.97"/>
    <path class="st4" d="M217.63,181.39c14,11.56,22.93,29.04,22.93,48.61,0,34.79-28.21,63-63,63s-63-28.21-63-63c0-21.75,11.02-40.92,27.78-52.24"/>
    <path class="st4" d="M158.56,289l-13-47-3-81s-2-10,10-11,40,1,40,1l13,1s10-1,4,14"/>
    <path class="st7" d="M171.75,183.27c2.18-3.11,4.63-5.98,7.13-8.81,4.83.17,9.74,1.49,14.41,2.56,0,0,2.2.56,2.2.56.71.17,1.51.37,2.08.47.56.05.99.55.89,1.12-.31,1.39-2.49.55-3.37.57,0,0-2.28-.31-2.28-.31-2.23-.36-6.73-1.06-8.97-1.39-1.47-.2-2.97-.4-4.34-.44,0,0,1.13-.45,1.13-.45-2.32,2.64-4.68,5.21-7.29,7.59-.95.88-2.39-.44-1.6-1.46h0Z"/>
    <path class="st7" d="M157.61,172.56c1.09-3.1,2.22-6.14,3.64-9.14.6-1.37,1.88-2.85,3.58-2.92,6.41.14,13.18,1.47,19.5,2.39,2.1.33,4.22.62,6.26.78.75.04,1.32.69,1.26,1.44-.06.7-.64,1.23-1.33,1.23-2.26,0-4.42-.26-6.58-.48-6.06-.66-12.95-2-19.01-2.19,0,0,.21-.01.21-.01-.65.08-.76.59-1.15,1.21-1.45,2.79-2.91,5.85-4.49,8.59-.62,1.08-2.32.29-1.89-.88h0Z"/>
    <path class="st7" d="M197.63,163.92l14.04.45h.27c7.83,3.36,11.69,10.29,6.34,17.87-.65.98-1.97,1.24-2.95.59-1.02-.67-1.25-2.09-.51-3.06,2.65-3.24,2.85-7.08-.5-9.89-1.01-.92-2.22-1.72-3.5-2.41,0,0,.61.17.61.17l-13.96-1.55c-1.35-.16-1.22-2.18.15-2.16h0Z"/>
    <path class="st7" d="M150.11,148.92l33.82-14.45c1.15-.57,3.52-1.22,5.22-1.38,4.97-.77,11.64,1.11,15.13,3.12,4.86,2.51,4.67,8.93,3.75,13.53,0,0-.42,1.83-.42,1.83l-4.1-1.12c.24-.94.58-2.24.72-3.18.42-2.45.47-5.94-1.39-7.46-5.01-2.83-11-4.33-16.61-2.65-.39.12-.77.26-1.04.39,0,0-34.18,13.55-34.18,13.55l-.89-2.17h0Z"/>
    <path class="st7" d="M144.1,160.65l10.58,48.1c.14.62-.26,1.23-.88,1.37-.61.13-1.22-.25-1.37-.86l-11.42-47.9c-.45-2.03,2.59-2.75,3.08-.71h0Z"/>
    <path class="st7" d="M155.86,213.76l1.13,7.33,1.35,8.77c.15.99-1.34,1.28-1.56.29,0,0-3.52-15.9-3.52-15.9-.35-1.76,2.29-2.26,2.6-.49h0Z"/>
    <polygon class="st2" points="186.07 149.86 191.63 148.11 195.66 150.45 186.07 149.86"/>
    <path class="st0" d="M157.56,147.45s7-11.45,7-19.45c0,0,14-11,21,7"/>
    <path class="st5" d="M175.06,261.5s27-25,25-40-11-27-11-27"/>
    <line class="st5" x1="189.47" y1="246" x2="209.06" y2="283.5"/>
    <polygon class="st10" points="140.56 115 154.16 113.34 167.38 105.47 176.56 97 182.56 88 191.56 70 199.08 58.62 212.12 52.86 223.56 51 228.56 60 215.63 63.12 208.56 65 200.56 72 196.56 78 190.17 89.43 182.56 107 174.28 114.33 162.56 121 149.56 123 145.06 122.5 140.56 115"/>
    <polygon class="st8" points="135.56 107 149.16 104.34 162.38 96.47 171.56 88 177.56 79 186.56 61 194.08 49.62 207.12 43.86 218.56 42 223.56 51 210.63 54.12 203.56 56 195.56 63 191.56 69 185.17 80.43 177.56 98 169.28 105.33 157.56 112 144.56 114 140.06 113.5 135.56 107"/>
    <path class="st5" d="M189.06,194.5s11,5,20,2"/>
    <path class="st5" d="M202.06,179.5s13,0,15,3,4,8,4,12-11,10-11,10c0,0-9,3-14,0s-2-7-2-7"/>
    <path class="st7" d="M196.21,201.09c4.36.09,8.17-2.1,11.55-4.87,0,0,1.41,1.7,1.42,1.7-2.03,1.91-4.59,3.07-7.21,3.93-2,.47-4.22,1.38-6.32.89-1.41-.11-2.54-2.79-1.37-4.24.85-1.29,1.38-1.51,1.93-1.54,1.65-.11,3.23.62,4.91.39,2.37-.14,4.84-.39,7.03-1.36,1.09-.49,2.06.98,1.19,1.79-1.71,1.97-3.45,3.97-5.73,5.38-1.85,1.2-4.34,1.87-6.49,1.06-.74-.27-1.36-.61-2-1.22-.67-.6-.25-1.79.63-1.86,0,0,.46-.05.46-.05h0Z"/>
    <line class="st3" x1="198.56" y1="201" x2="229.56" y2="247"/>
    <polygon class="st6" points="118.81 82 132.56 78 145.26 71.17 155.11 60.06 167.2 35.02 176.56 24 189.56 18 201.56 16 196.56 8 181.55 10.26 167.56 18 158.56 29 155.56 39 148.78 49.65 141.88 58.23 132.56 66 122.56 71 115.44 73.28 118.81 82"/>
    <line class="st3" x1="111.56" y1="71" x2="157.56" y2="145"/>
    <path class="st4" d="M113.34,73.56c4.17-.65,11.07-2.21,18.17-6.56,24.94-15.28,21.69-43.51,44.05-54,4.22-1.98,12-6,22.42-5.4,11.24,17.61,22.48,35.22,33.72,52.84-5.67-.37-14.09-.05-22.12,4.46-20.87,11.72-17.06,39.34-37.28,52.11-5.53,3.5-13.3,8.1-28.16,6.32-9.83-16.21-20.97-33.55-30.8-49.76Z"/>
    <path class="st1" d="M226.43,51.81c-5.67-.37-14.09-.05-22.12,4.46-20.87,11.72-17.06,39.34-37.28,52.11-5.53,3.5-14.61,6.98-29.47,5.19"/>
    <polygon class="st13" points="119.56 81 133.16 78.34 146.38 70.47 154.12 61.32 160.45 49.37 167.77 34.31 178.08 23.62 191.12 17.86 201.25 16.45 207.56 25 194.63 28.12 187.56 30 179.56 37 174.56 42 169.17 54.43 162.14 68.64 153.28 79.33 141.56 86 128.56 88 124.06 87.5 119.56 81"/>
    <polygon class="st9" points="125.56 90 139.16 87.34 152.38 79.47 160.12 70.32 166.45 58.37 173.77 43.31 184.08 32.62 197.12 26.86 207.25 25.45 213.56 34 200.63 37.12 193.56 39 185.56 46 181.56 52 175.17 63.43 168.14 77.64 159.28 88.33 147.56 95 134.56 97 130.06 96.5 125.56 90"/>
    <polygon class="st12" points="130.56 99 144.16 96.34 157.38 88.47 166.56 80 172.56 71 181.56 53 189.08 41.62 202.12 35.86 213.56 34 218.56 43 205.63 46.12 198.56 48 190.56 55 186.56 61 180.17 72.43 172.56 90 164.28 97.33 152.56 104 139.56 106 135.06 105.5 130.56 99"/>
    <path class="st1" d="M215.06,33.5c-10.95-.37-16.1,2.4-20.16,4.83-17.06,10.22-16.59,32.93-35.4,49.86-3.28,2.95-7.67,6.2-13.74,8.11-6.81,2.15-12.87,1.71-16.5,1.15"/>
    <path class="st1" d="M123.48,88.31c12.86.38,21.05-3.09,26.16-6.36,20.6-13.18,17.28-39.76,37.73-51.22,7.98-4.47,16.34-4.84,22.12-4.46"/>
    <path class="st1" d="M221.93,43.28c-5.67-.37-14.09-.05-22.12,4.46-20.87,11.72-17.06,39.34-37.28,52.11-5.53,3.5-14.61,6.98-29.47,5.19"/>
    <path class="st1" d="M203.73,16.12c-11.25.23-19.5,3.27-25.66,7.5-18.44,12.65-15.59,34.22-34.18,48.18-7.97,5.99-17.22,8.57-26.24,9.36"/>
  </g>
  <path class="st7" d="M16.93,328.21c6.65,0,11.55,5.28,11.55,11.49s-4.89,11.49-11.55,11.49h-6.82v12.32c0,2.04-.99,3.08-2.8,3.08s-2.8-1.04-2.8-3.08v-31.79c0-2.36,1.15-3.52,3.46-3.52h8.96ZM10.11,345.86h6.87c3.35,0,5.88-2.8,5.88-6.1s-2.53-5.94-5.88-5.94h-6.87v12.04Z"/>
  <path class="st7" d="M53.07,328.21c6.6,0,11.55,5.28,11.55,11.49,0,4.89-3.41,9.18-7.37,10.34l6.1,12.32c.22.49.33.99.33,1.43,0,1.65-1.43,2.8-2.86,2.8-.88,0-1.87-.44-2.42-1.6l-7.04-13.97h-5.11v12.48c0,2.04-.99,3.08-2.8,3.08s-2.8-1.04-2.8-3.08v-31.79c0-2.36,1.16-3.52,3.46-3.52h8.96ZM46.25,345.8h6.87c3.52,0,5.88-2.75,5.88-6.05s-2.36-5.94-5.88-5.94h-6.87v11.99Z"/>
  <path class="st7" d="M93.21,328.21c2.03,0,3.13.99,3.13,2.8s-1.1,2.8-3.13,2.8h-3.96v26.89h3.96c2.03,0,3.13.99,3.13,2.8s-1.1,2.8-3.13,2.8h-13.75c-2.09,0-3.13-.93-3.13-2.86s1.04-2.75,3.13-2.75h4.12v-26.89h-4.12c-2.09,0-3.13-.93-3.13-2.86,0-1.81,1.04-2.75,3.13-2.75h13.75Z"/>
  <path class="st7" d="M121.37,328.21c11.38,0,19.74,8.52,19.74,19.08,0,11.49-9.24,19.03-20.24,19.03h-8.58c-1.65,0-2.75-1.21-2.75-2.8v-32.5c0-1.59,1.1-2.8,2.75-2.8h9.07ZM115.16,360.71h5.88c8.19,0,14.35-5.66,14.35-13.42s-6.38-13.47-14.41-13.47h-5.83v26.89Z"/>
  <path class="st7" d="M175.11,328.21c1.59,0,2.8,1.21,2.8,2.8s-1.21,2.8-2.8,2.8h-14.96v9.4h14.35c1.48,0,2.64,1.15,2.64,2.69,0,1.43-1.15,2.69-2.64,2.69h-14.35v12.1h14.85c1.54,0,2.8,1.21,2.8,2.8s-1.27,2.8-2.8,2.8h-17.71c-1.65,0-2.75-1.21-2.75-2.8v-32.5c0-1.59,1.1-2.8,2.75-2.8h17.82Z"/>
  <path class="st7" d="M227.41,328.21c6.65,0,11.55,5.28,11.55,11.49s-4.89,11.49-11.55,11.49h-6.82v12.32c0,2.04-.99,3.08-2.8,3.08s-2.8-1.04-2.8-3.08v-31.79c0-2.36,1.15-3.52,3.46-3.52h8.96ZM220.6,345.86h6.87c3.35,0,5.88-2.8,5.88-6.1s-2.53-5.94-5.88-5.94h-6.87v12.04Z"/>
  <path class="st7" d="M268.77,355.7h-16.17l-3.9,8.96c-.6,1.32-1.7,1.92-2.75,1.92-1.37,0-2.64-1.04-2.64-2.7,0-.44.06-.88.27-1.38l14.41-32.67c.66-1.54,1.65-1.92,2.75-1.92s2.03.38,2.69,1.92l14.35,32.67c.22.5.27.94.27,1.38,0,1.65-1.21,2.7-2.64,2.7-1.04,0-2.14-.61-2.75-1.92l-3.9-8.96ZM254.86,350.53h11.66l-5.83-13.36-5.83,13.36Z"/>
  <path class="st7" d="M304.14,328.21c2.03,0,3.13.99,3.13,2.8s-1.1,2.8-3.13,2.8h-6.05v29.64c0,2.09-.88,3.13-2.75,3.13s-2.86-1.04-2.86-3.08v-29.7h-5.94c-2.09,0-3.13-.93-3.13-2.86,0-1.81,1.04-2.75,3.13-2.75h17.6Z"/>
  <path class="st7" d="M325.1,343.6h16.77v-12.48c0-2.14.99-3.19,2.97-3.19,1.7,0,2.64,1.04,2.64,3.19v32.56c0,1.92-.88,2.92-2.69,2.92-1.98,0-2.91-.99-2.91-2.92v-14.41h-16.77v14.41c0,1.92-.88,2.92-2.75,2.92s-2.86-.99-2.86-2.92v-32.56c0-2.14.93-3.19,2.91-3.19,1.81,0,2.69,1.04,2.69,3.19v12.48Z"/>
</svg>