<?xml version="1.0" encoding="UTF-8"?>
<svg id="Camada_1" xmlns="http://www.w3.org/2000/svg" version="1.1" viewBox="0 0 361 768">
  <!-- Generator: Adobe Illustrator 29.5.1, SVG Export Plug-In . SVG Version: 2.1.0 Build 141)  -->
  <defs>
    <style>
      .st0 {
        fill: #f0b034;
      }

      .st1 {
        fill: #41042b;
      }

      .st2, .st3 {
        stroke-width: 11.22px;
      }

      .st2, .st3, .st4, .st5, .st6, .st7 {
        fill: none;
        stroke: #41042b;
      }

      .st2, .st3, .st7 {
        stroke-miterlimit: 10;
      }

      .st3, .st4 {
        stroke-linecap: round;
      }

      .st4, .st5, .st6 {
        stroke-linejoin: round;
      }

      .st4, .st5, .st7 {
        stroke-width: 7.48px;
      }

      .st8 {
        fill: #8a2a78;
      }

      .st9 {
        fill: #2aafe2;
      }

      .st10 {
        fill: #cb0b50;
      }

      .st6 {
        stroke-width: 5.87px;
      }

      .st11 {
        fill: #ffffe9;
      }

      .st12 {
        fill: #332d91;
      }

      .st13 {
        fill: #34bf47;
      }
    </style>
  </defs>
  <polygon class="st11" points="25.25 637.07 40.11 676.72 83.21 727.23 125.71 750.41 180.44 762 244.19 751.7 294.42 721.43 335.61 671.44 350.45 608.74 344.01 547.56 327.91 510.21 293.13 468.36 288.12 463.01 294.31 448.14 290.92 438.6 271.53 422.91 273.38 396.13 267.01 391.78 257.68 388.74 259.09 365.39 258.6 355.81 230.07 344.29 213.36 344.42 206.33 344.29 197.05 329.03 184.12 318.56 161.96 320.1 153.03 325.64 145.64 344.29 137.64 369.04 129.81 381.22 119.26 386.5 103.48 388.74 94.55 399.21 93.63 442.6 92.88 455.1 74.41 476.2 49.31 500.78 26.22 548.18 21.64 592.29 25.25 637.07"/>
  <path class="st2" d="M290.95,466.67c36.94,30.49,60.49,76.62,60.49,128.26,0,91.8-74.42,166.22-166.22,166.22S19,686.73,19,594.93c0-57.37,29.07-107.96,73.28-137.83"/>
  <path class="st2" d="M135.09,750.6l-34.3-124-7.92-213.71s-5.28-26.38,26.38-29.02c31.66-2.64,105.54,2.64,105.54,2.64l34.3,2.64s26.38-2.64,10.55,36.94"/>
  <path class="st1" d="M169.91,471.64c5.39-7.65,11.33-15.07,17.69-21.97,0,0,1.21-1.28,1.21-1.28l1.78.09c14.43.98,28.06,4.76,41.98,8.12.79.21,3.46.84,4.27,1.02.64.14,1.08.2,1.67.34,1.34.29,2.2,1.61,1.91,2.96-.26,1.19-1.33,2-2.51,1.96-.58-.02-1.26-.02-1.77-.07-.95-.05-3.65-.36-4.64-.49-3.99-.48-13.77-2.08-17.88-2.72-7.62-1.14-15.69-2.67-23.23-2.95,0,0,2.99-1.19,2.99-1.19-.27.27-.8.84-1.06,1.13-5.87,6.49-11.66,13-18.17,18.9-2.58,2.22-6.21-1.09-4.23-3.86h0Z"/>
  <path class="st1" d="M132.59,443.38c2.33-6.76,4.88-13.49,7.75-20.07,2.23-5.2,4.95-11.54,11.58-11.77,11.78.19,22.93,2.01,34.41,3.71,9.58,1.44,23.85,3.94,33.29,4.66,1.98.1,3.5,1.81,3.34,3.79-.15,1.85-1.71,3.25-3.54,3.24-5.88-.03-11.58-.65-17.35-1.27-16.66-1.8-33.51-5.16-50.16-5.78,0,0,.57-.04.57-.04-1.21.14-1.4.59-2.11,1.61-.27.48-.7,1.06-.93,1.58-3.93,7.51-7.55,15.33-11.84,22.65-1.72,2.81-6.04.81-5-2.32h0Z"/>
  <path class="st1" d="M238.19,420.59s37.04,1.19,37.04,1.19c0,0,.72.02.72.02s.9.42.9.42c20.45,9.35,29.58,26.71,15.83,46.69-1.72,2.58-5.2,3.27-7.78,1.55-2.69-1.78-3.31-5.52-1.35-8.07,4.02-5.32,6.92-11.66,4.51-17.99-2.42-6.42-8.93-11.13-15.07-14.47,0,0,1.62.44,1.62.44l-36.83-4.09c-3.58-.46-3.23-5.73.41-5.69h0Z"/>
  <path class="st1" d="M112.8,381c.07.06,90.12-38.57,88.93-37.98.24-.14.75-.34,1-.46,8.53-3.54,18.04-4.3,27.13-3.3,4.65.56,9.23,1.57,13.64,3.03,4.27,1.29,10.87,4.38,12.91,5.5,7.19,3.77,10.17,12.71,10.51,20.13.39,6.89-.77,13.52-2.42,20.06,0,0-10.82-2.95-10.82-2.95,2.08-7.61,3.94-16.4,1.21-23.87-.73-1.94-2.23-3.95-3.52-4.48-13.5-7.66-30.31-11.47-45.25-6.05,0,0-.48.2-.48.2,0,0-.29.13-.29.13,0,0-90.19,35.76-90.19,35.76s-2.36-5.72-2.36-5.72h0Z"/>
  <path class="st1" d="M96.94,411.95l27.92,126.9c.36,1.64-.67,3.26-2.31,3.62-1.62.36-3.22-.65-3.6-2.26l-30.13-126.39c-1.12-5.41,6.74-7.27,8.12-1.86h0Z"/>
  <path class="st1" d="M127.97,552.07l6.54,42.47c.18,1.15-.61,2.22-1.75,2.39-1.1.17-2.13-.55-2.37-1.62l-9.29-41.96c-.87-4.68,5.97-5.98,6.87-1.29h0Z"/>
  <polygon class="st6" points="207.68 383.5 222.35 378.88 232.98 385.06 207.68 383.5"/>
  <path class="st5" d="M132.45,377.12s18.47-30.2,18.47-51.31c0,0,36.94-29.02,55.41,18.47"/>
  <path class="st4" d="M178.62,678.04s71.24-65.96,65.96-105.54c-5.28-39.58-29.02-71.24-29.02-71.24"/>
  <line class="st4" x1="216.65" y1="637.15" x2="268.33" y2="736.08"/>
  <polygon class="st10" points="87.6 291.52 123.49 287.15 158.38 266.37 182.58 244.03 198.41 220.28 222.16 172.79 241.99 142.77 276.4 127.56 306.58 122.66 319.78 146.41 285.68 154.65 267.01 159.6 245.9 178.07 235.35 193.9 218.51 224.06 198.41 270.41 176.57 289.75 145.64 307.35 111.34 312.62 99.47 311.31 87.6 291.52"/>
  <polygon class="st8" points="74.41 270.41 110.3 263.41 145.19 242.62 169.39 220.28 185.22 196.54 208.96 149.04 228.8 119.03 263.21 103.81 293.39 98.92 306.58 122.66 272.49 130.91 253.82 135.85 232.71 154.32 222.16 170.15 205.31 200.31 185.22 246.67 163.37 266 132.45 283.6 98.15 288.88 86.28 287.56 74.41 270.41"/>
  <path class="st4" d="M215.56,501.27s29.02,13.19,52.77,5.28"/>
  <path class="st4" d="M249.86,461.69s34.3,0,39.58,7.92,10.55,21.11,10.55,31.66-29.02,26.38-29.02,26.38c0,0-23.75,7.92-36.94,0s-5.28-18.47-5.28-18.47"/>
  <path class="st1" d="M234.44,518.65c.3-.13,1.56-.05,1.97-.1,4.61-.04,8.75-.93,12.93-3.01,5.44-2.48,11.01-5.65,15.58-9.74,0,0,3.73,4.48,3.73,4.48-6.77,6.24-15.55,9.77-24.43,11.78-3.65.74-7.52,2.06-11.26.95-3.82-.44-6.67-7.19-3.62-11.18,2.23-3.4,3.65-3.99,5.1-4.07,1.44-.19,2.82-.07,4.24.26,4.37,1.16,8.84.85,13.34.41,4.75-.46,9.44-1.29,13.83-3.2,2.86-1.22,5.38,2.45,3.26,4.68-4.55,5.18-9.09,10.47-15.11,14.21-6.58,4.43-16.34,5.55-22.42-.44-.42-.38-.46-1.02-.1-1.45l2.97-3.59h0Z"/>
  <line class="st3" x1="240.62" y1="518.42" x2="322.41" y2="639.78"/>
  <polygon class="st0" points="30.23 204.46 66.49 193.9 100 175.88 125.99 146.56 157.9 80.49 182.58 51.42 216.88 35.59 248.54 30.32 235.35 9.21 195.76 15.17 158.84 35.59 135.09 64.62 127.17 91 109.28 119.09 91.1 141.73 66.49 162.24 40.11 175.43 21.32 181.45 30.23 204.46"/>
  <line class="st3" x1="11.09" y1="175.43" x2="132.45" y2="370.67"/>
  <path class="st2" d="M15.79,182.18c11-1.73,29.2-5.84,47.93-17.31,65.81-40.31,57.22-114.81,116.22-142.47,11.12-5.22,31.66-15.83,59.14-14.24,29.66,46.47,59.32,92.94,88.98,139.4-14.95-.98-37.17-.12-58.35,11.77-55.07,30.93-45.02,103.79-98.36,137.48-14.6,9.22-35.1,21.38-74.3,16.66-25.93-42.78-55.32-88.52-81.26-131.3Z"/>
  <path class="st7" d="M314.16,124.8c-14.95-.98-37.17-.12-58.35,11.77-55.07,30.93-45.02,103.79-98.36,137.48-14.6,9.22-38.55,18.41-77.75,13.7"/>
  <polygon class="st13" points="32.19 201.81 68.09 194.81 102.97 174.02 123.39 149.9 140.09 118.35 159.39 78.64 186.59 50.43 221 35.21 247.72 31.5 264.37 54.06 230.28 62.31 211.6 67.26 190.5 85.72 177.3 98.92 163.1 131.71 144.54 169.2 121.16 197.41 90.24 215 55.94 220.28 44.07 218.96 32.19 201.81"/>
  <polygon class="st9" points="48.02 225.56 83.92 218.55 118.8 197.77 139.22 173.64 155.92 142.1 175.22 102.38 202.42 74.17 236.83 58.96 263.55 55.25 280.2 77.81 246.11 86.05 227.43 91 206.33 109.47 195.77 125.3 178.93 155.46 160.37 192.94 136.99 221.15 106.07 238.75 71.77 244.03 59.9 242.71 48.02 225.56"/>
  <polygon class="st12" points="61.22 249.3 97.11 242.3 132 221.51 156.2 199.17 172.03 175.43 195.77 127.94 215.61 97.92 250.02 82.71 280.2 77.81 293.39 101.55 259.3 109.8 240.62 114.75 219.52 133.21 208.96 149.04 192.12 179.2 172.03 225.56 150.18 244.9 119.26 262.5 84.96 267.77 73.09 266.45 61.22 249.3"/>
  <path class="st7" d="M284.16,76.49c-28.9-.97-42.49,6.33-53.19,12.74-45.01,26.95-43.77,86.89-93.39,131.55-8.66,7.79-20.24,16.36-36.24,21.41-17.96,5.67-33.95,4.52-43.53,3.04"/>
  <path class="st7" d="M42.56,221.1c33.94.99,55.53-8.15,69.03-16.79,54.34-34.78,45.6-104.89,99.53-135.13,21.04-11.8,43.12-12.76,58.35-11.77"/>
  <path class="st7" d="M302.29,102.3c-14.95-.98-37.17-.12-58.35,11.77-55.07,30.93-45.02,103.79-98.36,137.48-14.6,9.22-38.55,18.41-77.75,13.7"/>
  <path class="st7" d="M254.28,30.64c-29.69.62-51.45,8.63-67.69,19.79-48.64,33.39-41.13,90.28-90.19,127.12-21.04,15.8-45.42,22.61-69.22,24.71"/>
</svg>